<mxfile host="app.diagrams.net" modified="2023-09-26T18:59:21.901Z" agent="Mozilla/5.0 (Windows NT 10.0; Win64; x64) AppleWebKit/537.36 (KHTML, like Gecko) Chrome/116.0.0.0 Safari/537.36" version="21.8.2" etag="LY2-asYeIrMD91nSSjxk" type="github">
  <diagram name="PÃ¡gina-1" id="cBLR7VMn5geqSXaxfpEP">
    <mxGraphModel>
      <root>
        <mxCell id="0" />
        <mxCell id="1" parent="0" />
      </root>
    </mxGraphModel>
  </diagram>
</mxfile>
